<?xml version="1.0" standalone="no"?>
<!DOCTYPE svg PUBLIC "-//W3C//DTD SVG 20010904//EN"
 "http://www.w3.org/TR/2001/REC-SVG-20010904/DTD/svg10.dtd">
<svg version="1.0" xmlns="http://www.w3.org/2000/svg"
 width="259.000000pt" height="259.000000pt" viewBox="0 0 259.000000 259.000000"
 preserveAspectRatio="xMidYMid meet">
<metadata>
Created by potrace 1.14, written by Peter Selinger 2001-2017
</metadata>
<g transform="translate(0.000000,259.000000) scale(0.100000,-0.100000)"
fill="#000000" stroke="none">
<path d="M0 1295 l0 -1295 1295 0 1295 0 0 1295 0 1295 -1295 0 -1295 0 0
-1295z m2579 663 c-1 -380 -5 -584 -10 -536 -19 178 -92 391 -187 540 -102
161 -267 327 -415 416 -90 54 -246 119 -352 148 -135 35 -393 45 -530 20 -261
-48 -477 -159 -665 -342 -139 -135 -221 -253 -295 -424 -37 -87 -83 -261 -95
-358 -4 -39 -8 190 -9 541 l-1 607 1280 0 1280 0 -1 -612z m-1180 -369 c65
-19 130 -77 170 -149 34 -61 36 -71 36 -150 -1 -72 -5 -93 -27 -135 -15 -27
-44 -67 -66 -89 -38 -36 -42 -38 -79 -29 l-38 9 63 33 c34 19 62 38 62 43 0 5
-13 29 -30 53 -26 38 -29 49 -24 88 12 88 -40 165 -127 188 -40 11 -53 10 -93
-5 -65 -25 -99 -72 -104 -144 -2 -43 2 -66 16 -92 22 -41 75 -80 108 -80 32 0
30 -6 -12 -52 -33 -37 -35 -41 -19 -58 16 -17 15 -19 -2 -28 -15 -9 -31 1 -91
53 -40 34 -80 62 -89 61 -26 -2 -64 84 -70 157 -19 232 188 394 416 326z
m-1346 -567 c14 -59 13 -63 -4 -73 -11 -6 -19 -21 -19 -36 0 -32 87 -183 105
-183 17 0 107 -155 166 -287 25 -57 48 -106 52 -109 3 -4 20 -1 38 5 26 9 35
8 54 -7 160 -126 240 -176 372 -231 67 -29 231 -75 298 -84 17 -2 -223 -5
-532 -6 l-563 -1 1 628 c1 369 5 590 9 537 5 -49 15 -118 23 -153z m2527 -402
l0 -610 -562 1 -563 1 90 18 c226 46 439 152 591 293 34 31 69 57 77 57 8 0
43 -9 76 -19 57 -18 63 -18 81 -2 13 10 51 109 110 286 50 148 90 275 90 282
0 7 -6 13 -14 13 -24 0 -24 11 -5 105 10 50 19 111 19 138 0 26 2 47 5 47 3 0
5 -274 5 -610z m-1730 530 c10 -30 21 -62 24 -71 6 -14 -5 -21 -58 -39 -36
-12 -68 -25 -71 -30 -3 -5 -2 -34 1 -65 6 -49 10 -56 25 -52 13 4 19 0 19 -11
0 -13 -10 -18 -40 -19 -22 -2 -53 -9 -70 -18 -16 -8 -31 -15 -35 -15 -3 0 -5
20 -5 45 0 53 -16 89 -57 126 -68 64 -166 82 -292 55 -41 -9 -76 -14 -78 -13
-6 6 -23 110 -23 139 l0 28 321 -2 321 -3 18 -55z m1556 -7 c-12 -122 -38
-190 -60 -161 -14 18 -220 62 -252 54 -22 -6 -24 -11 -24 -71 0 -63 -1 -65
-25 -65 -14 0 -42 -7 -62 -15 -20 -8 -37 -14 -39 -13 -2 3 -34 199 -34 212 0
3 -35 6 -78 6 -54 0 -84 -5 -100 -16 -27 -19 -27 -19 -1 53 12 32 23 64 25 71
3 9 77 12 330 12 l327 0 -7 -67z m-947 16 c13 -17 21 -32 19 -34 -1 -1 -32
-17 -67 -34 -92 -47 -105 -35 -41 39 29 33 55 60 59 60 4 0 17 -14 30 -31z
m434 -215 l16 -106 -25 -45 c-27 -52 -32 -119 -10 -161 8 -15 31 -42 51 -60
20 -19 34 -36 32 -39 -3 -2 -30 -2 -61 2 -63 8 -58 0 -76 125 -6 41 -12 76
-14 78 -2 2 -12 -19 -21 -47 -9 -28 -18 -51 -20 -51 -2 0 -16 27 -31 60 -15
33 -30 60 -34 60 -4 0 -11 -30 -16 -67 l-9 -68 -54 2 c-30 2 -56 4 -57 6 -10
10 16 101 35 121 19 20 19 24 5 37 -14 14 -13 26 3 120 l18 104 57 3 56 3 12
-58 c6 -32 13 -62 14 -68 2 -5 9 24 16 65 7 41 14 78 17 83 2 4 21 7 42 7 l38
0 16 -106z m-918 39 c4 -32 8 -62 9 -67 1 -5 23 21 50 57 26 37 50 67 54 67 4
0 29 -22 55 -48 l47 -48 -51 -49 c-28 -28 -59 -62 -70 -76 l-19 -26 57 -22
c32 -12 77 -41 104 -66 28 -26 63 -48 88 -55 40 -11 41 -12 41 -55 0 -25 -2
-45 -4 -45 -2 0 -77 36 -167 80 l-164 80 -3 -85 c-3 -93 3 -84 -74 -99 -31 -7
-37 49 -13 107 21 52 19 96 -10 152 -14 29 -27 76 -31 117 -6 62 -8 68 -26 62
-16 -5 -19 -2 -16 17 2 18 14 27 58 40 79 25 78 25 85 -38z m-465 22 c15 -8
41 -30 59 -50 24 -28 31 -45 31 -78 -1 -69 -49 -150 -119 -199 l-23 -16 27
-102 c14 -56 24 -107 22 -114 -6 -15 -79 -38 -88 -28 -4 4 -49 100 -100 214
-81 181 -95 206 -110 197 -10 -5 -21 -9 -26 -9 -8 0 -73 102 -73 114 0 15 150
76 220 90 41 7 151 -4 180 -19z m956 -24 c23 -10 45 -24 48 -30 4 -6 -21 -43
-58 -84 -48 -53 -61 -73 -50 -75 9 -2 29 5 45 17 36 27 37 27 75 -10 l33 -32
-27 -22 c-83 -70 -217 -80 -280 -22 -141 130 34 340 214 258z m779 -4 l60 -13
22 -104 c12 -58 24 -112 25 -120 2 -8 14 30 27 85 13 55 26 103 30 107 9 9
111 -14 111 -26 0 -15 -151 -469 -159 -478 -4 -4 -23 -3 -43 2 l-35 10 -8 133
-8 132 -17 -93 c-9 -51 -19 -94 -21 -97 -3 -2 -24 -1 -48 2 l-43 6 7 36 c4 20
15 45 25 56 55 61 67 157 27 216 -17 26 -22 44 -19 72 3 27 0 38 -12 43 -22 8
-21 44 2 44 9 -1 44 -6 77 -13z m-130 -121 c39 -16 75 -68 75 -106 0 -14 -9
-44 -19 -66 -67 -147 -276 -131 -273 21 0 51 23 95 65 126 53 39 100 47 152
25z m-955 -41 c0 -19 -4 -23 -17 -18 -33 12 -36 16 -18 30 27 19 35 16 35 -12z
m-303 -20 c34 -34 35 -38 31 -94 -3 -45 -11 -68 -32 -95 -64 -85 -171 -100
-233 -32 -54 59 -44 145 24 207 43 40 63 48 122 49 48 0 57 -4 88 -35z m621
-182 l-3 -37 80 -13 c44 -7 94 -11 111 -8 23 4 33 1 38 -10 4 -11 13 -14 26
-10 16 5 20 2 20 -19 0 -28 -4 -27 132 -51 104 -19 131 -12 122 34 -5 26 -3
29 25 33 30 4 31 3 31 -33 0 -36 -5 -41 -87 -104 -388 -291 -926 -299 -1317
-20 -82 58 -103 83 -112 130 l-7 40 23 -29 c48 -60 136 -72 214 -31 26 14 49
25 52 25 2 0 4 -12 4 -26 l0 -27 70 7 c81 8 130 23 131 39 0 7 0 31 -1 55 -1
25 3 42 9 42 6 0 75 -32 152 -71 180 -90 189 -89 189 14 l0 73 43 16 c59 22
58 22 55 -19z"/>
<path d="M402 882 c-10 -7 -8 -23 9 -78 11 -38 25 -73 29 -78 12 -12 67 45 76
79 10 39 -23 79 -67 83 -19 1 -40 -2 -47 -6z m68 -62 c7 -27 2 -50 -10 -50 -4
0 -11 11 -14 24 -3 13 -9 32 -12 41 -5 13 -2 16 12 13 10 -1 21 -14 24 -28z"/>
<path d="M1313 915 c-31 -22 -39 -70 -17 -103 l17 -26 54 58 c41 46 50 62 42
73 -15 18 -69 17 -96 -2z"/>
<path d="M1997 812 c-25 -27 -22 -78 5 -96 49 -35 118 -9 118 44 0 22 -1 22
-18 7 -25 -23 -45 -21 -68 4 -15 17 -16 23 -6 40 16 26 -8 27 -31 1z"/>
<path d="M723 790 c-23 -10 -43 -39 -43 -65 0 -26 46 -65 78 -65 34 0 72 36
72 70 0 22 -1 22 -19 6 -39 -35 -100 2 -73 44 7 11 11 20 10 19 -2 0 -13 -4
-25 -9z"/>
</g>
</svg>
